<mxfile host="app.diagrams.net" agent="Mozilla/5.0 (Windows NT 10.0; Win64; x64) AppleWebKit/537.36 (KHTML, like Gecko) Chrome/130.0.0.0 Safari/537.36" version="24.8.3">
  <diagram name="Page-1" id="TO6kB4z5MBMpsq3OqiZG">
    <mxGraphModel dx="1050" dy="557" grid="1" gridSize="10" guides="1" tooltips="1" connect="1" arrows="1" fold="1" page="1" pageScale="1" pageWidth="850" pageHeight="1100" math="0" shadow="0">
      <root>
        <mxCell id="0" />
        <mxCell id="1" parent="0" />
        <mxCell id="DxxqK-J1NwxKRJ_Hc7Qy-11" value="" style="rounded=0;whiteSpace=wrap;html=1;" vertex="1" parent="1">
          <mxGeometry x="200" y="20" width="750" height="820" as="geometry" />
        </mxCell>
        <mxCell id="ds1MS7w25QjL1ORueq1j-7" style="edgeStyle=orthogonalEdgeStyle;rounded=0;orthogonalLoop=1;jettySize=auto;html=1;curved=0;" parent="1" edge="1">
          <mxGeometry relative="1" as="geometry">
            <Array as="points">
              <mxPoint x="510.5" y="310" />
              <mxPoint x="510.5" y="310" />
            </Array>
            <mxPoint x="420" y="310" as="sourcePoint" />
            <mxPoint x="660" y="310" as="targetPoint" />
          </mxGeometry>
        </mxCell>
        <mxCell id="ds1MS7w25QjL1ORueq1j-1" value="Frontend" style="shape=umlLifeline;perimeter=lifelinePerimeter;whiteSpace=wrap;html=1;container=1;dropTarget=0;collapsible=0;recursiveResize=0;outlineConnect=0;portConstraint=eastwest;newEdgeStyle={&quot;curved&quot;:0,&quot;rounded&quot;:0};" parent="1" vertex="1">
          <mxGeometry x="370" y="110" width="100" height="720" as="geometry" />
        </mxCell>
        <mxCell id="ds1MS7w25QjL1ORueq1j-14" style="edgeStyle=orthogonalEdgeStyle;rounded=0;orthogonalLoop=1;jettySize=auto;html=1;curved=0;" parent="1" edge="1">
          <mxGeometry relative="1" as="geometry">
            <Array as="points">
              <mxPoint x="730.5" y="540" />
              <mxPoint x="730.5" y="540" />
            </Array>
            <mxPoint x="660" y="540" as="sourcePoint" />
            <mxPoint x="870" y="540" as="targetPoint" />
          </mxGeometry>
        </mxCell>
        <mxCell id="ds1MS7w25QjL1ORueq1j-2" value="Backend" style="shape=umlLifeline;perimeter=lifelinePerimeter;whiteSpace=wrap;html=1;container=1;dropTarget=0;collapsible=0;recursiveResize=0;outlineConnect=0;portConstraint=eastwest;newEdgeStyle={&quot;curved&quot;:0,&quot;rounded&quot;:0};" parent="1" vertex="1">
          <mxGeometry x="610" y="110" width="100" height="720" as="geometry" />
        </mxCell>
        <mxCell id="ds1MS7w25QjL1ORueq1j-3" value="Database" style="shape=umlLifeline;perimeter=lifelinePerimeter;whiteSpace=wrap;html=1;container=1;dropTarget=0;collapsible=0;recursiveResize=0;outlineConnect=0;portConstraint=eastwest;newEdgeStyle={&quot;curved&quot;:0,&quot;rounded&quot;:0};" parent="1" vertex="1">
          <mxGeometry x="820" y="110" width="100" height="720" as="geometry" />
        </mxCell>
        <mxCell id="ds1MS7w25QjL1ORueq1j-4" value="Admin" style="shape=umlActor;verticalLabelPosition=bottom;verticalAlign=top;html=1;" parent="1" vertex="1">
          <mxGeometry x="230" y="195" width="30" height="60" as="geometry" />
        </mxCell>
        <mxCell id="ds1MS7w25QjL1ORueq1j-6" style="rounded=0;orthogonalLoop=1;jettySize=auto;html=1;" parent="1" edge="1">
          <mxGeometry relative="1" as="geometry">
            <mxPoint x="280" y="224.5" as="sourcePoint" />
            <mxPoint x="419.5" y="224.5" as="targetPoint" />
          </mxGeometry>
        </mxCell>
        <mxCell id="ds1MS7w25QjL1ORueq1j-11" style="edgeStyle=orthogonalEdgeStyle;rounded=0;orthogonalLoop=1;jettySize=auto;html=1;curved=0;" parent="1" edge="1">
          <mxGeometry relative="1" as="geometry">
            <mxPoint x="659.5" y="360" as="sourcePoint" />
            <mxPoint x="659.5" y="380" as="targetPoint" />
            <Array as="points">
              <mxPoint x="620" y="350" />
            </Array>
          </mxGeometry>
        </mxCell>
        <mxCell id="ds1MS7w25QjL1ORueq1j-13" value="authenticate token" style="html=1;whiteSpace=wrap;" parent="1" vertex="1">
          <mxGeometry x="500" y="340" width="110" height="40" as="geometry" />
        </mxCell>
        <mxCell id="ds1MS7w25QjL1ORueq1j-20" value="response" style="html=1;whiteSpace=wrap;" parent="1" vertex="1">
          <mxGeometry x="710" y="550" width="110" height="30" as="geometry" />
        </mxCell>
        <mxCell id="iVlFPtmmlEYchxga2JXQ-9" style="edgeStyle=orthogonalEdgeStyle;rounded=0;orthogonalLoop=1;jettySize=auto;html=1;curved=0;" parent="1" edge="1">
          <mxGeometry relative="1" as="geometry">
            <mxPoint x="870" y="590" as="sourcePoint" />
            <mxPoint x="660" y="590" as="targetPoint" />
            <Array as="points">
              <mxPoint x="830.5" y="590" />
              <mxPoint x="830.5" y="590" />
            </Array>
          </mxGeometry>
        </mxCell>
        <mxCell id="B1_j8ZbPT3PzYgEqwr39-2" value="" style="image;aspect=fixed;html=1;points=[];align=center;fontSize=12;image=img/lib/azure2/general/Browser.svg;" parent="1" vertex="1">
          <mxGeometry x="387.5" y="50" width="65" height="52" as="geometry" />
        </mxCell>
        <mxCell id="B1_j8ZbPT3PzYgEqwr39-3" value="" style="image;aspect=fixed;perimeter=ellipsePerimeter;html=1;align=center;shadow=0;dashed=0;fontColor=#4277BB;labelBackgroundColor=default;fontSize=12;spacingTop=3;image=img/lib/ibm/infrastructure/mobile_backend.svg;" parent="1" vertex="1">
          <mxGeometry x="630" y="40" width="62" height="62" as="geometry" />
        </mxCell>
        <mxCell id="B1_j8ZbPT3PzYgEqwr39-4" value="" style="sketch=0;points=[[0,0,0],[0.25,0,0],[0.5,0,0],[0.75,0,0],[1,0,0],[0,1,0],[0.25,1,0],[0.5,1,0],[0.75,1,0],[1,1,0],[0,0.25,0],[0,0.5,0],[0,0.75,0],[1,0.25,0],[1,0.5,0],[1,0.75,0]];outlineConnect=0;fontColor=#232F3E;fillColor=#C925D1;strokeColor=#ffffff;dashed=0;verticalLabelPosition=bottom;verticalAlign=top;align=center;html=1;fontSize=12;fontStyle=0;aspect=fixed;shape=mxgraph.aws4.resourceIcon;resIcon=mxgraph.aws4.documentdb_with_mongodb_compatibility;" parent="1" vertex="1">
          <mxGeometry x="840.5" y="41.5" width="59" height="59" as="geometry" />
        </mxCell>
        <mxCell id="CODazpXLHY-GL3RTQAhL-3" value="access token, deviceId" style="html=1;whiteSpace=wrap;" parent="1" vertex="1">
          <mxGeometry x="490" y="270" width="130" height="30" as="geometry" />
        </mxCell>
        <mxCell id="CODazpXLHY-GL3RTQAhL-22" value="" style="endArrow=classic;html=1;rounded=0;" parent="1" edge="1">
          <mxGeometry width="50" height="50" relative="1" as="geometry">
            <mxPoint x="650" y="660" as="sourcePoint" />
            <mxPoint x="424.75" y="660" as="targetPoint" />
          </mxGeometry>
        </mxCell>
        <mxCell id="CODazpXLHY-GL3RTQAhL-23" value="response" style="html=1;whiteSpace=wrap;" parent="1" vertex="1">
          <mxGeometry x="500" y="620" width="110" height="30" as="geometry" />
        </mxCell>
        <mxCell id="hvCD2QtILBZ2bcFVSlkV-1" style="edgeStyle=orthogonalEdgeStyle;rounded=0;orthogonalLoop=1;jettySize=auto;html=1;curved=0;" parent="1" edge="1">
          <mxGeometry relative="1" as="geometry">
            <mxPoint x="659.5" y="419.95" as="sourcePoint" />
            <mxPoint x="659.5" y="439.95" as="targetPoint" />
            <Array as="points">
              <mxPoint x="620" y="409.95" />
            </Array>
          </mxGeometry>
        </mxCell>
        <mxCell id="hvCD2QtILBZ2bcFVSlkV-2" value="authorize user as admin" style="html=1;whiteSpace=wrap;" parent="1" vertex="1">
          <mxGeometry x="500" y="400" width="110" height="40" as="geometry" />
        </mxCell>
        <mxCell id="hvCD2QtILBZ2bcFVSlkV-4" value="update device, isDisable as true" style="html=1;whiteSpace=wrap;" parent="1" vertex="1">
          <mxGeometry x="710" y="490" width="110" height="43.5" as="geometry" />
        </mxCell>
        <mxCell id="DxxqK-J1NwxKRJ_Hc7Qy-6" style="edgeStyle=orthogonalEdgeStyle;rounded=0;orthogonalLoop=1;jettySize=auto;html=1;curved=0;" edge="1" parent="1">
          <mxGeometry relative="1" as="geometry">
            <mxPoint x="419.5" y="719.95" as="sourcePoint" />
            <mxPoint x="419.5" y="739.95" as="targetPoint" />
            <Array as="points">
              <mxPoint x="380" y="709.95" />
            </Array>
          </mxGeometry>
        </mxCell>
        <mxCell id="DxxqK-J1NwxKRJ_Hc7Qy-7" value="show alert" style="html=1;whiteSpace=wrap;" vertex="1" parent="1">
          <mxGeometry x="260" y="700" width="110" height="40" as="geometry" />
        </mxCell>
        <mxCell id="DxxqK-J1NwxKRJ_Hc7Qy-9" value="access token, deviceId" style="html=1;whiteSpace=wrap;" vertex="1" parent="1">
          <mxGeometry x="290" y="210" width="90" height="30" as="geometry" />
        </mxCell>
      </root>
    </mxGraphModel>
  </diagram>
</mxfile>
